<svg xmlns="http://www.w3.org/2000/svg" xmlns:xlink="http://www.w3.org/1999/xlink" width="500" zoomAndPan="magnify" viewBox="0 0 375 89.249998" height="119" preserveAspectRatio="xMidYMid meet" version="1.0"><defs><g/><clipPath id="e03bd010aa"><path d="M 10.695312 3 L 77.632812 3 L 77.632812 85.378906 L 10.695312 85.378906 Z M 10.695312 3 " clip-rule="nonzero"/></clipPath></defs><g clip-path="url(#e03bd010aa)"><path fill="#8c52ff" d="M 27.007812 53.785156 L 27.007812 56.535156 L 23.195312 58.867188 C 22.347656 59.289062 21.289062 59.289062 20.230469 58.867188 C 19.382812 58.230469 18.75 57.382812 18.75 56.324219 C 18.75 49.96875 18.75 43.617188 18.75 37.261719 C 18.75 34.296875 19.171875 31.542969 20.230469 28.578125 C 23.621094 18.832031 32.941406 11.417969 43.953125 11.417969 C 57.933594 11.417969 69.375 22.859375 69.375 36.835938 C 69.375 46.371094 63.867188 54.84375 56.027344 59.078125 L 35.480469 70.941406 C 35.480469 64.585938 35.480469 58.230469 35.480469 51.875 C 35.480469 46.792969 35.480469 41.710938 35.480469 36.835938 C 35.480469 32.175781 39.292969 28.152344 43.953125 28.152344 C 48.828125 28.152344 52.640625 32.175781 52.640625 36.835938 C 52.640625 40.015625 50.945312 42.769531 48.402344 44.25 L 39.71875 49.335938 L 39.71875 58.867188 L 52.003906 51.875 C 57.300781 48.910156 61.113281 43.191406 61.113281 36.835938 C 61.113281 27.519531 53.273438 19.890625 43.953125 19.890625 C 34.847656 19.890625 27.007812 27.519531 27.007812 36.835938 C 27.007812 42.558594 27.007812 48.0625 27.007812 53.785156 Z M 27.007812 66.070312 C 27.007812 66.070312 27.007812 83.015625 27.007812 85.34375 L 59.207031 66.917969 C 70.007812 61.410156 77.632812 49.96875 77.632812 36.835938 C 77.632812 18.410156 62.59375 3.160156 43.953125 3.160156 C 28.492188 3.160156 15.570312 13.75 11.546875 27.941406 C 10.910156 30.90625 10.488281 33.871094 10.488281 36.835938 C 10.488281 43.402344 10.488281 49.96875 10.488281 56.535156 C 10.488281 60.5625 12.394531 64.164062 15.996094 66.070312 C 19.382812 68.1875 23.621094 68.1875 27.007812 66.070312 Z M 27.007812 66.070312 " fill-opacity="1" fill-rule="evenodd"/></g><g fill="#8c52ff" fill-opacity="1"><g transform="translate(86.450368, 48.268914)"><g><path d="M 3.03125 -22.4375 L 13.15625 -22.4375 C 13.84375 -22.4375 14.414062 -22.207031 14.875 -21.75 C 15.332031 -21.289062 15.5625 -20.722656 15.5625 -20.046875 C 15.5625 -19.390625 15.332031 -18.835938 14.875 -18.390625 C 14.414062 -17.953125 13.84375 -17.734375 13.15625 -17.734375 L 3.03125 -17.734375 C 2.351562 -17.734375 1.785156 -17.960938 1.328125 -18.421875 C 0.867188 -18.878906 0.640625 -19.445312 0.640625 -20.125 C 0.640625 -20.78125 0.867188 -21.328125 1.328125 -21.765625 C 1.785156 -22.210938 2.351562 -22.4375 3.03125 -22.4375 Z M 7.609375 -27.78125 C 8.347656 -27.78125 8.953125 -27.53125 9.421875 -27.03125 C 9.890625 -26.53125 10.125 -25.910156 10.125 -25.171875 L 10.125 -6.15625 C 10.125 -5.757812 10.203125 -5.429688 10.359375 -5.171875 C 10.515625 -4.910156 10.726562 -4.722656 11 -4.609375 C 11.269531 -4.492188 11.5625 -4.4375 11.875 -4.4375 C 12.21875 -4.4375 12.53125 -4.5 12.8125 -4.625 C 13.101562 -4.757812 13.429688 -4.828125 13.796875 -4.828125 C 14.203125 -4.828125 14.566406 -4.640625 14.890625 -4.265625 C 15.222656 -3.898438 15.390625 -3.390625 15.390625 -2.734375 C 15.390625 -1.929688 14.953125 -1.273438 14.078125 -0.765625 C 13.210938 -0.253906 12.28125 0 11.28125 0 C 10.6875 0 10.023438 -0.046875 9.296875 -0.140625 C 8.566406 -0.242188 7.878906 -0.488281 7.234375 -0.875 C 6.597656 -1.257812 6.066406 -1.847656 5.640625 -2.640625 C 5.210938 -3.441406 5 -4.539062 5 -5.9375 L 5 -25.171875 C 5 -25.910156 5.25 -26.53125 5.75 -27.03125 C 6.25 -27.53125 6.867188 -27.78125 7.609375 -27.78125 Z M 7.609375 -27.78125 "/></g></g></g><g fill="#8c52ff" fill-opacity="1"><g transform="translate(103.925888, 48.268914)"><g><path d="M 5.34375 0 C 4.601562 0 3.988281 -0.25 3.5 -0.75 C 3.019531 -1.25 2.78125 -1.867188 2.78125 -2.609375 L 2.78125 -20.25 C 2.78125 -21 3.019531 -21.617188 3.5 -22.109375 C 3.988281 -22.609375 4.601562 -22.859375 5.34375 -22.859375 C 6.082031 -22.859375 6.691406 -22.609375 7.171875 -22.109375 C 7.660156 -21.617188 7.90625 -21 7.90625 -20.25 L 7.90625 -16.234375 L 7.609375 -19.109375 C 7.921875 -19.785156 8.328125 -20.382812 8.828125 -20.90625 C 9.328125 -21.4375 9.890625 -21.878906 10.515625 -22.234375 C 11.140625 -22.597656 11.804688 -22.863281 12.515625 -23.03125 C 13.234375 -23.207031 13.945312 -23.296875 14.65625 -23.296875 C 15.507812 -23.296875 16.226562 -23.050781 16.8125 -22.5625 C 17.394531 -22.082031 17.6875 -21.515625 17.6875 -20.859375 C 17.6875 -19.910156 17.441406 -19.226562 16.953125 -18.8125 C 16.472656 -18.40625 15.953125 -18.203125 15.390625 -18.203125 C 14.847656 -18.203125 14.351562 -18.300781 13.90625 -18.5 C 13.46875 -18.695312 12.960938 -18.796875 12.390625 -18.796875 C 11.878906 -18.796875 11.359375 -18.675781 10.828125 -18.4375 C 10.304688 -18.195312 9.820312 -17.816406 9.375 -17.296875 C 8.9375 -16.785156 8.582031 -16.148438 8.3125 -15.390625 C 8.039062 -14.640625 7.90625 -13.753906 7.90625 -12.734375 L 7.90625 -2.609375 C 7.90625 -1.867188 7.660156 -1.25 7.171875 -0.75 C 6.691406 -0.25 6.082031 0 5.34375 0 Z M 5.34375 0 "/></g></g></g><g fill="#8c52ff" fill-opacity="1"><g transform="translate(122.469598, 48.268914)"><g><path d="M 7.609375 -2.609375 C 7.609375 -1.867188 7.363281 -1.25 6.875 -0.75 C 6.394531 -0.25 5.785156 0 5.046875 0 C 4.304688 0 3.691406 -0.25 3.203125 -0.75 C 2.722656 -1.25 2.484375 -1.867188 2.484375 -2.609375 L 2.484375 -20.25 C 2.484375 -21 2.722656 -21.617188 3.203125 -22.109375 C 3.691406 -22.609375 4.304688 -22.859375 5.046875 -22.859375 C 5.785156 -22.859375 6.394531 -22.609375 6.875 -22.109375 C 7.363281 -21.617188 7.609375 -21 7.609375 -20.25 Z M 5 -25.640625 C 4.03125 -25.640625 3.347656 -25.796875 2.953125 -26.109375 C 2.554688 -26.421875 2.359375 -26.976562 2.359375 -27.78125 L 2.359375 -28.59375 C 2.359375 -29.414062 2.578125 -29.972656 3.015625 -30.265625 C 3.460938 -30.566406 4.140625 -30.71875 5.046875 -30.71875 C 6.046875 -30.71875 6.742188 -30.5625 7.140625 -30.25 C 7.535156 -29.9375 7.734375 -29.382812 7.734375 -28.59375 L 7.734375 -27.78125 C 7.734375 -26.945312 7.519531 -26.378906 7.09375 -26.078125 C 6.664062 -25.785156 5.96875 -25.640625 5 -25.640625 Z M 5 -25.640625 "/></g></g></g><g fill="#8c52ff" fill-opacity="1"><g transform="translate(132.553264, 48.268914)"><g><path d="M 14.609375 -23.296875 C 16.609375 -23.296875 18.394531 -22.785156 19.96875 -21.765625 C 21.550781 -20.753906 22.804688 -19.363281 23.734375 -17.59375 C 24.660156 -15.832031 25.125 -13.785156 25.125 -11.453125 C 25.125 -9.117188 24.660156 -7.0625 23.734375 -5.28125 C 22.804688 -3.5 21.566406 -2.101562 20.015625 -1.09375 C 18.460938 -0.0820312 16.71875 0.421875 14.78125 0.421875 C 13.644531 0.421875 12.578125 0.238281 11.578125 -0.125 C 10.578125 -0.5 9.703125 -0.96875 8.953125 -1.53125 C 8.203125 -2.101562 7.617188 -2.679688 7.203125 -3.265625 C 6.785156 -3.847656 6.578125 -4.34375 6.578125 -4.75 L 7.90625 -5.296875 L 7.90625 5.9375 C 7.90625 6.675781 7.660156 7.296875 7.171875 7.796875 C 6.691406 8.296875 6.082031 8.546875 5.34375 8.546875 C 4.601562 8.546875 3.988281 8.300781 3.5 7.8125 C 3.019531 7.332031 2.78125 6.707031 2.78125 5.9375 L 2.78125 -20.25 C 2.78125 -21 3.019531 -21.617188 3.5 -22.109375 C 3.988281 -22.609375 4.601562 -22.859375 5.34375 -22.859375 C 6.082031 -22.859375 6.691406 -22.609375 7.171875 -22.109375 C 7.660156 -21.617188 7.90625 -21 7.90625 -20.25 L 7.90625 -18.15625 L 7.171875 -18.546875 C 7.171875 -18.921875 7.367188 -19.367188 7.765625 -19.890625 C 8.171875 -20.421875 8.710938 -20.945312 9.390625 -21.46875 C 10.078125 -22 10.867188 -22.4375 11.765625 -22.78125 C 12.671875 -23.125 13.617188 -23.296875 14.609375 -23.296875 Z M 13.96875 -18.59375 C 12.71875 -18.59375 11.617188 -18.273438 10.671875 -17.640625 C 9.734375 -17.015625 9 -16.164062 8.46875 -15.09375 C 7.945312 -14.03125 7.6875 -12.816406 7.6875 -11.453125 C 7.6875 -10.109375 7.945312 -8.890625 8.46875 -7.796875 C 9 -6.703125 9.734375 -5.84375 10.671875 -5.21875 C 11.617188 -4.59375 12.71875 -4.28125 13.96875 -4.28125 C 15.226562 -4.28125 16.316406 -4.59375 17.234375 -5.21875 C 18.160156 -5.84375 18.890625 -6.703125 19.421875 -7.796875 C 19.953125 -8.890625 20.21875 -10.109375 20.21875 -11.453125 C 20.21875 -12.816406 19.953125 -14.03125 19.421875 -15.09375 C 18.890625 -16.164062 18.160156 -17.015625 17.234375 -17.640625 C 16.316406 -18.273438 15.226562 -18.59375 13.96875 -18.59375 Z M 13.96875 -18.59375 "/></g></g></g><g fill="#8c52ff" fill-opacity="1"><g transform="translate(159.386093, 48.268914)"><g><path d="M 15 -23.296875 C 17.101562 -23.296875 18.703125 -22.851562 19.796875 -21.96875 C 20.898438 -21.082031 21.65625 -19.90625 22.0625 -18.4375 C 22.476562 -16.96875 22.6875 -15.335938 22.6875 -13.546875 L 22.6875 -2.609375 C 22.6875 -1.867188 22.441406 -1.25 21.953125 -0.75 C 21.472656 -0.25 20.863281 0 20.125 0 C 19.382812 0 18.769531 -0.25 18.28125 -0.75 C 17.800781 -1.25 17.5625 -1.867188 17.5625 -2.609375 L 17.5625 -13.546875 C 17.5625 -14.484375 17.441406 -15.328125 17.203125 -16.078125 C 16.960938 -16.835938 16.523438 -17.445312 15.890625 -17.90625 C 15.265625 -18.363281 14.367188 -18.59375 13.203125 -18.59375 C 12.066406 -18.59375 11.101562 -18.363281 10.3125 -17.90625 C 9.53125 -17.445312 8.929688 -16.835938 8.515625 -16.078125 C 8.109375 -15.328125 7.90625 -14.484375 7.90625 -13.546875 L 7.90625 -2.609375 C 7.90625 -1.867188 7.660156 -1.25 7.171875 -0.75 C 6.691406 -0.25 6.082031 0 5.34375 0 C 4.601562 0 3.988281 -0.25 3.5 -0.75 C 3.019531 -1.25 2.78125 -1.867188 2.78125 -2.609375 L 2.78125 -20.25 C 2.78125 -21 3.019531 -21.617188 3.5 -22.109375 C 3.988281 -22.609375 4.601562 -22.859375 5.34375 -22.859375 C 6.082031 -22.859375 6.691406 -22.609375 7.171875 -22.109375 C 7.660156 -21.617188 7.90625 -21 7.90625 -20.25 L 7.90625 -18.421875 L 7.265625 -18.546875 C 7.523438 -19.023438 7.894531 -19.539062 8.375 -20.09375 C 8.863281 -20.65625 9.429688 -21.175781 10.078125 -21.65625 C 10.734375 -22.144531 11.472656 -22.539062 12.296875 -22.84375 C 13.128906 -23.144531 14.03125 -23.296875 15 -23.296875 Z M 15 -23.296875 "/></g></g></g><g fill="#8c52ff" fill-opacity="1"><g transform="translate(184.851644, 48.268914)"><g><path d="M 12.953125 -23.296875 C 14.578125 -23.296875 15.992188 -23.125 17.203125 -22.78125 C 18.410156 -22.4375 19.347656 -21.957031 20.015625 -21.34375 C 20.691406 -20.726562 21.03125 -19.992188 21.03125 -19.140625 C 21.03125 -18.578125 20.859375 -18.046875 20.515625 -17.546875 C 20.171875 -17.046875 19.671875 -16.796875 19.015625 -16.796875 C 18.554688 -16.796875 18.175781 -16.859375 17.875 -16.984375 C 17.582031 -17.109375 17.320312 -17.269531 17.09375 -17.46875 C 16.863281 -17.675781 16.59375 -17.863281 16.28125 -18.03125 C 16 -18.207031 15.566406 -18.34375 14.984375 -18.4375 C 14.398438 -18.539062 13.960938 -18.59375 13.671875 -18.59375 C 12.222656 -18.59375 10.992188 -18.273438 9.984375 -17.640625 C 8.972656 -17.015625 8.195312 -16.164062 7.65625 -15.09375 C 7.113281 -14.03125 6.84375 -12.800781 6.84375 -11.40625 C 6.84375 -10.039062 7.117188 -8.820312 7.671875 -7.75 C 8.222656 -6.6875 8.988281 -5.84375 9.96875 -5.21875 C 10.957031 -4.59375 12.09375 -4.28125 13.375 -4.28125 C 14.082031 -4.28125 14.691406 -4.320312 15.203125 -4.40625 C 15.722656 -4.488281 16.15625 -4.613281 16.5 -4.78125 C 16.894531 -5.007812 17.25 -5.25 17.5625 -5.5 C 17.875 -5.757812 18.34375 -5.890625 18.96875 -5.890625 C 19.707031 -5.890625 20.273438 -5.65625 20.671875 -5.1875 C 21.078125 -4.71875 21.28125 -4.144531 21.28125 -3.46875 C 21.28125 -2.75 20.878906 -2.097656 20.078125 -1.515625 C 19.285156 -0.929688 18.238281 -0.460938 16.9375 -0.109375 C 15.644531 0.242188 14.242188 0.421875 12.734375 0.421875 C 10.484375 0.421875 8.53125 -0.09375 6.875 -1.125 C 5.226562 -2.164062 3.953125 -3.582031 3.046875 -5.375 C 2.148438 -7.175781 1.703125 -9.1875 1.703125 -11.40625 C 1.703125 -13.75 2.179688 -15.804688 3.140625 -17.578125 C 4.097656 -19.359375 5.421875 -20.753906 7.109375 -21.765625 C 8.804688 -22.785156 10.753906 -23.296875 12.953125 -23.296875 Z M 12.953125 -23.296875 "/></g></g></g><g fill="#8c52ff" fill-opacity="1"><g transform="translate(207.069902, 48.268914)"><g><path d="M 7.609375 -2.609375 C 7.609375 -1.867188 7.363281 -1.25 6.875 -0.75 C 6.394531 -0.25 5.785156 0 5.046875 0 C 4.304688 0 3.691406 -0.25 3.203125 -0.75 C 2.722656 -1.25 2.484375 -1.867188 2.484375 -2.609375 L 2.484375 -20.25 C 2.484375 -21 2.722656 -21.617188 3.203125 -22.109375 C 3.691406 -22.609375 4.304688 -22.859375 5.046875 -22.859375 C 5.785156 -22.859375 6.394531 -22.609375 6.875 -22.109375 C 7.363281 -21.617188 7.609375 -21 7.609375 -20.25 Z M 5 -25.640625 C 4.03125 -25.640625 3.347656 -25.796875 2.953125 -26.109375 C 2.554688 -26.421875 2.359375 -26.976562 2.359375 -27.78125 L 2.359375 -28.59375 C 2.359375 -29.414062 2.578125 -29.972656 3.015625 -30.265625 C 3.460938 -30.566406 4.140625 -30.71875 5.046875 -30.71875 C 6.046875 -30.71875 6.742188 -30.5625 7.140625 -30.25 C 7.535156 -29.9375 7.734375 -29.382812 7.734375 -28.59375 L 7.734375 -27.78125 C 7.734375 -26.945312 7.519531 -26.378906 7.09375 -26.078125 C 6.664062 -25.785156 5.96875 -25.640625 5 -25.640625 Z M 5 -25.640625 "/></g></g></g><g fill="#8c52ff" fill-opacity="1"><g transform="translate(217.153569, 48.268914)"><g><path d="M 3.03125 -22.4375 L 13.15625 -22.4375 C 13.84375 -22.4375 14.414062 -22.207031 14.875 -21.75 C 15.332031 -21.289062 15.5625 -20.722656 15.5625 -20.046875 C 15.5625 -19.390625 15.332031 -18.835938 14.875 -18.390625 C 14.414062 -17.953125 13.84375 -17.734375 13.15625 -17.734375 L 3.03125 -17.734375 C 2.351562 -17.734375 1.785156 -17.960938 1.328125 -18.421875 C 0.867188 -18.878906 0.640625 -19.445312 0.640625 -20.125 C 0.640625 -20.78125 0.867188 -21.328125 1.328125 -21.765625 C 1.785156 -22.210938 2.351562 -22.4375 3.03125 -22.4375 Z M 7.609375 -27.78125 C 8.347656 -27.78125 8.953125 -27.53125 9.421875 -27.03125 C 9.890625 -26.53125 10.125 -25.910156 10.125 -25.171875 L 10.125 -6.15625 C 10.125 -5.757812 10.203125 -5.429688 10.359375 -5.171875 C 10.515625 -4.910156 10.726562 -4.722656 11 -4.609375 C 11.269531 -4.492188 11.5625 -4.4375 11.875 -4.4375 C 12.21875 -4.4375 12.53125 -4.5 12.8125 -4.625 C 13.101562 -4.757812 13.429688 -4.828125 13.796875 -4.828125 C 14.203125 -4.828125 14.566406 -4.640625 14.890625 -4.265625 C 15.222656 -3.898438 15.390625 -3.390625 15.390625 -2.734375 C 15.390625 -1.929688 14.953125 -1.273438 14.078125 -0.765625 C 13.210938 -0.253906 12.28125 0 11.28125 0 C 10.6875 0 10.023438 -0.046875 9.296875 -0.140625 C 8.566406 -0.242188 7.878906 -0.488281 7.234375 -0.875 C 6.597656 -1.257812 6.066406 -1.847656 5.640625 -2.640625 C 5.210938 -3.441406 5 -4.539062 5 -5.9375 L 5 -25.171875 C 5 -25.910156 5.25 -26.53125 5.75 -27.03125 C 6.25 -27.53125 6.867188 -27.78125 7.609375 -27.78125 Z M 7.609375 -27.78125 "/></g></g></g><g fill="#8c52ff" fill-opacity="1"><g transform="translate(234.629089, 48.268914)"><g><path d="M 19.75 -22.859375 C 20.488281 -22.859375 21.097656 -22.609375 21.578125 -22.109375 C 22.066406 -21.617188 22.3125 -21 22.3125 -20.25 L 22.3125 -2.09375 C 22.3125 0.53125 21.816406 2.617188 20.828125 4.171875 C 19.847656 5.722656 18.53125 6.835938 16.875 7.515625 C 15.226562 8.203125 13.378906 8.546875 11.328125 8.546875 C 10.410156 8.546875 9.4375 8.472656 8.40625 8.328125 C 7.382812 8.191406 6.546875 7.976562 5.890625 7.6875 C 5.035156 7.320312 4.441406 6.859375 4.109375 6.296875 C 3.785156 5.742188 3.726562 5.15625 3.9375 4.53125 C 4.1875 3.707031 4.597656 3.144531 5.171875 2.84375 C 5.742188 2.539062 6.34375 2.503906 6.96875 2.734375 C 7.425781 2.878906 8.023438 3.097656 8.765625 3.390625 C 9.503906 3.691406 10.359375 3.84375 11.328125 3.84375 C 12.640625 3.84375 13.726562 3.664062 14.59375 3.3125 C 15.457031 2.957031 16.109375 2.359375 16.546875 1.515625 C 16.992188 0.671875 17.21875 -0.472656 17.21875 -1.921875 L 17.21875 -4.78125 L 18.125 -3.765625 C 17.632812 -2.816406 17.023438 -2.035156 16.296875 -1.421875 C 15.578125 -0.816406 14.71875 -0.359375 13.71875 -0.046875 C 12.71875 0.265625 11.578125 0.421875 10.296875 0.421875 C 8.785156 0.421875 7.46875 0.0703125 6.34375 -0.625 C 5.21875 -1.320312 4.34375 -2.289062 3.71875 -3.53125 C 3.09375 -4.769531 2.78125 -6.1875 2.78125 -7.78125 L 2.78125 -20.25 C 2.78125 -21 3.019531 -21.617188 3.5 -22.109375 C 3.988281 -22.609375 4.601562 -22.859375 5.34375 -22.859375 C 6.082031 -22.859375 6.691406 -22.609375 7.171875 -22.109375 C 7.660156 -21.617188 7.90625 -21 7.90625 -20.25 L 7.90625 -9.3125 C 7.90625 -7.457031 8.3125 -6.15625 9.125 -5.40625 C 9.9375 -4.65625 11.066406 -4.28125 12.515625 -4.28125 C 13.515625 -4.28125 14.351562 -4.46875 15.03125 -4.84375 C 15.71875 -5.226562 16.242188 -5.796875 16.609375 -6.546875 C 16.984375 -7.304688 17.171875 -8.226562 17.171875 -9.3125 L 17.171875 -20.25 C 17.171875 -21 17.410156 -21.617188 17.890625 -22.109375 C 18.378906 -22.609375 19 -22.859375 19.75 -22.859375 Z M 19.75 -22.859375 "/></g></g></g><g fill="#8c52ff" fill-opacity="1"><g transform="translate(259.710083, 48.268914)"><g><path d="M 5.046875 -0.046875 C 4.210938 -0.046875 3.578125 -0.265625 3.140625 -0.703125 C 2.703125 -1.148438 2.484375 -1.785156 2.484375 -2.609375 L 2.484375 -3.328125 C 2.484375 -4.160156 2.703125 -4.796875 3.140625 -5.234375 C 3.578125 -5.671875 4.210938 -5.890625 5.046875 -5.890625 L 5.59375 -5.890625 C 6.425781 -5.890625 7.0625 -5.671875 7.5 -5.234375 C 7.9375 -4.796875 8.15625 -4.160156 8.15625 -3.328125 L 8.15625 -2.609375 C 8.15625 -1.785156 7.9375 -1.148438 7.5 -0.703125 C 7.0625 -0.265625 6.425781 -0.046875 5.59375 -0.046875 Z M 5.046875 -0.046875 "/></g></g></g><g fill="#8c52ff" fill-opacity="1"><g transform="translate(270.349215, 48.268914)"><g><path d="M 12.953125 -23.296875 C 14.578125 -23.296875 15.992188 -23.125 17.203125 -22.78125 C 18.410156 -22.4375 19.347656 -21.957031 20.015625 -21.34375 C 20.691406 -20.726562 21.03125 -19.992188 21.03125 -19.140625 C 21.03125 -18.578125 20.859375 -18.046875 20.515625 -17.546875 C 20.171875 -17.046875 19.671875 -16.796875 19.015625 -16.796875 C 18.554688 -16.796875 18.175781 -16.859375 17.875 -16.984375 C 17.582031 -17.109375 17.320312 -17.269531 17.09375 -17.46875 C 16.863281 -17.675781 16.59375 -17.863281 16.28125 -18.03125 C 16 -18.207031 15.566406 -18.34375 14.984375 -18.4375 C 14.398438 -18.539062 13.960938 -18.59375 13.671875 -18.59375 C 12.222656 -18.59375 10.992188 -18.273438 9.984375 -17.640625 C 8.972656 -17.015625 8.195312 -16.164062 7.65625 -15.09375 C 7.113281 -14.03125 6.84375 -12.800781 6.84375 -11.40625 C 6.84375 -10.039062 7.117188 -8.820312 7.671875 -7.75 C 8.222656 -6.6875 8.988281 -5.84375 9.96875 -5.21875 C 10.957031 -4.59375 12.09375 -4.28125 13.375 -4.28125 C 14.082031 -4.28125 14.691406 -4.320312 15.203125 -4.40625 C 15.722656 -4.488281 16.15625 -4.613281 16.5 -4.78125 C 16.894531 -5.007812 17.25 -5.25 17.5625 -5.5 C 17.875 -5.757812 18.34375 -5.890625 18.96875 -5.890625 C 19.707031 -5.890625 20.273438 -5.65625 20.671875 -5.1875 C 21.078125 -4.71875 21.28125 -4.144531 21.28125 -3.46875 C 21.28125 -2.75 20.878906 -2.097656 20.078125 -1.515625 C 19.285156 -0.929688 18.238281 -0.460938 16.9375 -0.109375 C 15.644531 0.242188 14.242188 0.421875 12.734375 0.421875 C 10.484375 0.421875 8.53125 -0.09375 6.875 -1.125 C 5.226562 -2.164062 3.953125 -3.582031 3.046875 -5.375 C 2.148438 -7.175781 1.703125 -9.1875 1.703125 -11.40625 C 1.703125 -13.75 2.179688 -15.804688 3.140625 -17.578125 C 4.097656 -19.359375 5.421875 -20.753906 7.109375 -21.765625 C 8.804688 -22.785156 10.753906 -23.296875 12.953125 -23.296875 Z M 12.953125 -23.296875 "/></g></g></g><g fill="#8c52ff" fill-opacity="1"><g transform="translate(292.567472, 48.268914)"><g><path d="M 24.953125 -11.40625 C 24.953125 -9.070312 24.429688 -7.015625 23.390625 -5.234375 C 22.359375 -3.453125 20.960938 -2.0625 19.203125 -1.0625 C 17.453125 -0.0703125 15.492188 0.421875 13.328125 0.421875 C 11.160156 0.421875 9.203125 -0.0703125 7.453125 -1.0625 C 5.703125 -2.0625 4.304688 -3.453125 3.265625 -5.234375 C 2.222656 -7.015625 1.703125 -9.070312 1.703125 -11.40625 C 1.703125 -13.75 2.222656 -15.804688 3.265625 -17.578125 C 4.304688 -19.359375 5.703125 -20.753906 7.453125 -21.765625 C 9.203125 -22.785156 11.160156 -23.296875 13.328125 -23.296875 C 15.492188 -23.296875 17.453125 -22.785156 19.203125 -21.765625 C 20.960938 -20.753906 22.359375 -19.359375 23.390625 -17.578125 C 24.429688 -15.804688 24.953125 -13.75 24.953125 -11.40625 Z M 19.828125 -11.40625 C 19.828125 -12.863281 19.535156 -14.125 18.953125 -15.1875 C 18.367188 -16.257812 17.582031 -17.09375 16.59375 -17.6875 C 15.613281 -18.289062 14.523438 -18.59375 13.328125 -18.59375 C 12.128906 -18.59375 11.039062 -18.289062 10.0625 -17.6875 C 9.082031 -17.09375 8.300781 -16.257812 7.71875 -15.1875 C 7.132812 -14.125 6.84375 -12.863281 6.84375 -11.40625 C 6.84375 -9.976562 7.132812 -8.726562 7.71875 -7.65625 C 8.300781 -6.59375 9.082031 -5.765625 10.0625 -5.171875 C 11.039062 -4.578125 12.128906 -4.28125 13.328125 -4.28125 C 14.523438 -4.28125 15.613281 -4.578125 16.59375 -5.171875 C 17.582031 -5.765625 18.367188 -6.59375 18.953125 -7.65625 C 19.535156 -8.726562 19.828125 -9.976562 19.828125 -11.40625 Z M 19.828125 -11.40625 "/></g></g></g><g fill="#8c52ff" fill-opacity="1"><g transform="translate(319.229393, 48.268914)"><g><path d="M 14.78125 -23.296875 C 17.0625 -23.296875 18.742188 -22.742188 19.828125 -21.640625 C 20.910156 -20.546875 21.625 -19.128906 21.96875 -17.390625 L 21.234375 -17.78125 L 21.578125 -18.46875 C 21.921875 -19.113281 22.445312 -19.8125 23.15625 -20.5625 C 23.875 -21.320312 24.738281 -21.96875 25.75 -22.5 C 26.757812 -23.03125 27.890625 -23.296875 29.140625 -23.296875 C 31.191406 -23.296875 32.75 -22.851562 33.8125 -21.96875 C 34.882812 -21.082031 35.617188 -19.90625 36.015625 -18.4375 C 36.421875 -16.96875 36.625 -15.335938 36.625 -13.546875 L 36.625 -2.609375 C 36.625 -1.867188 36.378906 -1.25 35.890625 -0.75 C 35.410156 -0.25 34.800781 0 34.0625 0 C 33.320312 0 32.707031 -0.25 32.21875 -0.75 C 31.738281 -1.25 31.5 -1.867188 31.5 -2.609375 L 31.5 -13.546875 C 31.5 -14.484375 31.382812 -15.328125 31.15625 -16.078125 C 30.925781 -16.835938 30.507812 -17.445312 29.90625 -17.90625 C 29.3125 -18.363281 28.457031 -18.59375 27.34375 -18.59375 C 26.257812 -18.59375 25.332031 -18.363281 24.5625 -17.90625 C 23.800781 -17.445312 23.226562 -16.835938 22.84375 -16.078125 C 22.457031 -15.328125 22.265625 -14.484375 22.265625 -13.546875 L 22.265625 -2.609375 C 22.265625 -1.867188 22.019531 -1.25 21.53125 -0.75 C 21.050781 -0.25 20.441406 0 19.703125 0 C 18.960938 0 18.347656 -0.25 17.859375 -0.75 C 17.378906 -1.25 17.140625 -1.867188 17.140625 -2.609375 L 17.140625 -13.546875 C 17.140625 -14.484375 17.023438 -15.328125 16.796875 -16.078125 C 16.566406 -16.835938 16.148438 -17.445312 15.546875 -17.90625 C 14.953125 -18.363281 14.097656 -18.59375 12.984375 -18.59375 C 11.910156 -18.59375 10.988281 -18.363281 10.21875 -17.90625 C 9.445312 -17.445312 8.867188 -16.835938 8.484375 -16.078125 C 8.097656 -15.328125 7.90625 -14.484375 7.90625 -13.546875 L 7.90625 -2.609375 C 7.90625 -1.867188 7.660156 -1.25 7.171875 -0.75 C 6.691406 -0.25 6.082031 0 5.34375 0 C 4.601562 0 3.988281 -0.25 3.5 -0.75 C 3.019531 -1.25 2.78125 -1.867188 2.78125 -2.609375 L 2.78125 -20.25 C 2.78125 -21 3.019531 -21.617188 3.5 -22.109375 C 3.988281 -22.609375 4.601562 -22.859375 5.34375 -22.859375 C 6.082031 -22.859375 6.691406 -22.609375 7.171875 -22.109375 C 7.660156 -21.617188 7.90625 -21 7.90625 -20.25 L 7.90625 -18.421875 L 7.265625 -18.546875 C 7.523438 -19.023438 7.878906 -19.539062 8.328125 -20.09375 C 8.785156 -20.65625 9.34375 -21.175781 10 -21.65625 C 10.65625 -22.144531 11.378906 -22.539062 12.171875 -22.84375 C 12.972656 -23.144531 13.84375 -23.296875 14.78125 -23.296875 Z M 14.78125 -23.296875 "/></g></g></g><g fill="#8c52ff" fill-opacity="1"><g transform="translate(123.318907, 68.081095)"><g><path d="M 4.140625 -7.671875 C 4.671875 -7.671875 5.140625 -7.566406 5.546875 -7.359375 C 5.953125 -7.160156 6.289062 -6.878906 6.5625 -6.515625 C 6.832031 -6.160156 7.035156 -5.75 7.171875 -5.28125 C 7.304688 -4.820312 7.375 -4.335938 7.375 -3.828125 C 7.375 -3.128906 7.253906 -2.488281 7.015625 -1.90625 C 6.773438 -1.332031 6.414062 -0.867188 5.9375 -0.515625 C 5.457031 -0.171875 4.859375 0 4.140625 0 L 1.40625 0 C 1.28125 0 1.175781 -0.0390625 1.09375 -0.125 C 1.007812 -0.21875 0.96875 -0.328125 0.96875 -0.453125 L 0.96875 -7.234375 C 0.96875 -7.359375 1.007812 -7.460938 1.09375 -7.546875 C 1.175781 -7.628906 1.28125 -7.671875 1.40625 -7.671875 Z M 4.03125 -0.859375 C 4.59375 -0.859375 5.050781 -0.992188 5.40625 -1.265625 C 5.757812 -1.535156 6.015625 -1.894531 6.171875 -2.34375 C 6.335938 -2.789062 6.421875 -3.285156 6.421875 -3.828125 C 6.421875 -4.222656 6.375 -4.601562 6.28125 -4.96875 C 6.195312 -5.332031 6.054688 -5.648438 5.859375 -5.921875 C 5.671875 -6.203125 5.425781 -6.421875 5.125 -6.578125 C 4.820312 -6.742188 4.457031 -6.828125 4.03125 -6.828125 L 1.78125 -6.828125 L 1.875 -6.90625 L 1.875 -0.75 L 1.8125 -0.859375 Z M 4.03125 -0.859375 "/></g></g></g><g fill="#8c52ff" fill-opacity="1"><g transform="translate(133.120739, 68.081095)"><g><path d="M 1.65625 -0.453125 C 1.65625 -0.328125 1.613281 -0.21875 1.53125 -0.125 C 1.445312 -0.0390625 1.34375 0 1.21875 0 C 1.082031 0 0.972656 -0.0390625 0.890625 -0.125 C 0.816406 -0.21875 0.78125 -0.328125 0.78125 -0.453125 L 0.78125 -5.3125 C 0.78125 -5.4375 0.820312 -5.539062 0.90625 -5.625 C 0.988281 -5.707031 1.09375 -5.75 1.21875 -5.75 C 1.34375 -5.75 1.445312 -5.707031 1.53125 -5.625 C 1.613281 -5.539062 1.65625 -5.4375 1.65625 -5.3125 Z M 1.203125 -6.484375 C 1.023438 -6.484375 0.890625 -6.519531 0.796875 -6.59375 C 0.710938 -6.664062 0.671875 -6.78125 0.671875 -6.9375 L 0.671875 -7.09375 C 0.671875 -7.238281 0.71875 -7.347656 0.8125 -7.421875 C 0.90625 -7.492188 1.039062 -7.53125 1.21875 -7.53125 C 1.394531 -7.53125 1.523438 -7.492188 1.609375 -7.421875 C 1.703125 -7.347656 1.75 -7.238281 1.75 -7.09375 L 1.75 -6.9375 C 1.75 -6.78125 1.703125 -6.664062 1.609375 -6.59375 C 1.515625 -6.519531 1.378906 -6.484375 1.203125 -6.484375 Z M 1.203125 -6.484375 "/></g></g></g><g fill="#8c52ff" fill-opacity="1"><g transform="translate(137.480666, 68.081095)"><g><path d="M 0.5 -0.890625 C 0.425781 -0.992188 0.394531 -1.097656 0.40625 -1.203125 C 0.414062 -1.304688 0.476562 -1.398438 0.59375 -1.484375 C 0.664062 -1.535156 0.75 -1.554688 0.84375 -1.546875 C 0.945312 -1.535156 1.039062 -1.488281 1.125 -1.40625 C 1.320312 -1.164062 1.550781 -0.972656 1.8125 -0.828125 C 2.082031 -0.679688 2.40625 -0.609375 2.78125 -0.609375 C 2.957031 -0.617188 3.132812 -0.648438 3.3125 -0.703125 C 3.488281 -0.753906 3.632812 -0.84375 3.75 -0.96875 C 3.875 -1.09375 3.9375 -1.265625 3.9375 -1.484375 C 3.9375 -1.679688 3.875 -1.835938 3.75 -1.953125 C 3.625 -2.078125 3.460938 -2.175781 3.265625 -2.25 C 3.066406 -2.332031 2.851562 -2.40625 2.625 -2.46875 C 2.375 -2.53125 2.132812 -2.601562 1.90625 -2.6875 C 1.675781 -2.769531 1.46875 -2.875 1.28125 -3 C 1.09375 -3.132812 0.941406 -3.296875 0.828125 -3.484375 C 0.710938 -3.679688 0.65625 -3.914062 0.65625 -4.1875 C 0.65625 -4.519531 0.742188 -4.804688 0.921875 -5.046875 C 1.097656 -5.285156 1.335938 -5.472656 1.640625 -5.609375 C 1.953125 -5.742188 2.285156 -5.8125 2.640625 -5.8125 C 2.847656 -5.8125 3.0625 -5.785156 3.28125 -5.734375 C 3.5 -5.679688 3.710938 -5.597656 3.921875 -5.484375 C 4.140625 -5.378906 4.328125 -5.226562 4.484375 -5.03125 C 4.554688 -4.957031 4.59375 -4.863281 4.59375 -4.75 C 4.601562 -4.644531 4.554688 -4.546875 4.453125 -4.453125 C 4.378906 -4.398438 4.289062 -4.375 4.1875 -4.375 C 4.09375 -4.382812 4.007812 -4.421875 3.9375 -4.484375 C 3.789062 -4.671875 3.597656 -4.8125 3.359375 -4.90625 C 3.128906 -5.007812 2.878906 -5.0625 2.609375 -5.0625 C 2.429688 -5.0625 2.257812 -5.035156 2.09375 -4.984375 C 1.925781 -4.929688 1.785156 -4.84375 1.671875 -4.71875 C 1.554688 -4.601562 1.5 -4.441406 1.5 -4.234375 C 1.507812 -4.035156 1.578125 -3.875 1.703125 -3.75 C 1.828125 -3.625 1.992188 -3.519531 2.203125 -3.4375 C 2.410156 -3.363281 2.644531 -3.289062 2.90625 -3.21875 C 3.132812 -3.15625 3.359375 -3.085938 3.578125 -3.015625 C 3.796875 -2.941406 3.988281 -2.84375 4.15625 -2.71875 C 4.332031 -2.59375 4.472656 -2.429688 4.578125 -2.234375 C 4.679688 -2.046875 4.734375 -1.804688 4.734375 -1.515625 C 4.734375 -1.171875 4.632812 -0.878906 4.4375 -0.640625 C 4.25 -0.398438 4 -0.210938 3.6875 -0.078125 C 3.382812 0.046875 3.050781 0.109375 2.6875 0.109375 C 2.289062 0.109375 1.894531 0.0351562 1.5 -0.109375 C 1.113281 -0.265625 0.78125 -0.523438 0.5 -0.890625 Z M 0.5 -0.890625 "/></g></g></g><g fill="#8c52ff" fill-opacity="1"><g transform="translate(144.610819, 68.081095)"><g><path d="M 3.328125 -5.8125 C 3.703125 -5.8125 4.035156 -5.769531 4.328125 -5.6875 C 4.628906 -5.601562 4.867188 -5.488281 5.046875 -5.34375 C 5.222656 -5.207031 5.3125 -5.054688 5.3125 -4.890625 C 5.3125 -4.796875 5.273438 -4.703125 5.203125 -4.609375 C 5.140625 -4.523438 5.054688 -4.484375 4.953125 -4.484375 C 4.847656 -4.484375 4.765625 -4.5 4.703125 -4.53125 C 4.640625 -4.570312 4.582031 -4.617188 4.53125 -4.671875 C 4.476562 -4.734375 4.398438 -4.785156 4.296875 -4.828125 C 4.210938 -4.878906 4.085938 -4.921875 3.921875 -4.953125 C 3.753906 -4.984375 3.585938 -5 3.421875 -5 C 3.015625 -5 2.660156 -4.898438 2.359375 -4.703125 C 2.054688 -4.515625 1.816406 -4.257812 1.640625 -3.9375 C 1.460938 -3.625 1.375 -3.257812 1.375 -2.84375 C 1.375 -2.4375 1.457031 -2.070312 1.625 -1.75 C 1.800781 -1.425781 2.035156 -1.171875 2.328125 -0.984375 C 2.628906 -0.796875 2.976562 -0.703125 3.375 -0.703125 C 3.625 -0.703125 3.828125 -0.722656 3.984375 -0.765625 C 4.140625 -0.804688 4.269531 -0.859375 4.375 -0.921875 C 4.5 -0.992188 4.597656 -1.066406 4.671875 -1.140625 C 4.742188 -1.210938 4.835938 -1.25 4.953125 -1.25 C 5.078125 -1.25 5.171875 -1.207031 5.234375 -1.125 C 5.304688 -1.039062 5.34375 -0.941406 5.34375 -0.828125 C 5.34375 -0.703125 5.25 -0.566406 5.0625 -0.421875 C 4.882812 -0.273438 4.640625 -0.148438 4.328125 -0.046875 C 4.015625 0.0546875 3.664062 0.109375 3.28125 0.109375 C 2.71875 0.109375 2.226562 -0.0195312 1.8125 -0.28125 C 1.394531 -0.539062 1.070312 -0.894531 0.84375 -1.34375 C 0.613281 -1.789062 0.5 -2.289062 0.5 -2.84375 C 0.5 -3.40625 0.617188 -3.90625 0.859375 -4.34375 C 1.097656 -4.789062 1.425781 -5.144531 1.84375 -5.40625 C 2.269531 -5.675781 2.765625 -5.8125 3.328125 -5.8125 Z M 3.328125 -5.8125 "/></g></g></g><g fill="#8c52ff" fill-opacity="1"><g transform="translate(152.233697, 68.081095)"><g><path d="M 6.1875 -2.84375 C 6.1875 -2.28125 6.0625 -1.773438 5.8125 -1.328125 C 5.5625 -0.878906 5.222656 -0.523438 4.796875 -0.265625 C 4.367188 -0.015625 3.890625 0.109375 3.359375 0.109375 C 2.816406 0.109375 2.332031 -0.015625 1.90625 -0.265625 C 1.476562 -0.523438 1.132812 -0.878906 0.875 -1.328125 C 0.625 -1.773438 0.5 -2.28125 0.5 -2.84375 C 0.5 -3.414062 0.625 -3.921875 0.875 -4.359375 C 1.132812 -4.804688 1.476562 -5.160156 1.90625 -5.421875 C 2.332031 -5.679688 2.816406 -5.8125 3.359375 -5.8125 C 3.890625 -5.8125 4.367188 -5.679688 4.796875 -5.421875 C 5.222656 -5.160156 5.5625 -4.804688 5.8125 -4.359375 C 6.0625 -3.921875 6.1875 -3.414062 6.1875 -2.84375 Z M 5.3125 -2.84375 C 5.3125 -3.269531 5.222656 -3.644531 5.046875 -3.96875 C 4.878906 -4.289062 4.644531 -4.539062 4.34375 -4.71875 C 4.050781 -4.90625 3.722656 -5 3.359375 -5 C 2.984375 -5 2.644531 -4.90625 2.34375 -4.71875 C 2.050781 -4.539062 1.816406 -4.289062 1.640625 -3.96875 C 1.460938 -3.644531 1.375 -3.269531 1.375 -2.84375 C 1.375 -2.425781 1.460938 -2.054688 1.640625 -1.734375 C 1.816406 -1.421875 2.050781 -1.171875 2.34375 -0.984375 C 2.644531 -0.796875 2.984375 -0.703125 3.359375 -0.703125 C 3.722656 -0.703125 4.050781 -0.796875 4.34375 -0.984375 C 4.644531 -1.171875 4.878906 -1.421875 5.046875 -1.734375 C 5.222656 -2.054688 5.3125 -2.425781 5.3125 -2.84375 Z M 5.3125 -2.84375 "/></g></g></g><g fill="#8c52ff" fill-opacity="1"><g transform="translate(160.863923, 68.081095)"><g><path d="M 0.8125 -5.765625 C 0.894531 -5.765625 0.976562 -5.738281 1.0625 -5.6875 C 1.144531 -5.644531 1.203125 -5.578125 1.234375 -5.484375 L 3.0625 -1.21875 L 2.875 -1.125 L 4.734375 -5.484375 C 4.816406 -5.671875 4.953125 -5.765625 5.140625 -5.765625 C 5.242188 -5.765625 5.335938 -5.726562 5.421875 -5.65625 C 5.503906 -5.582031 5.546875 -5.488281 5.546875 -5.375 C 5.546875 -5.332031 5.539062 -5.289062 5.53125 -5.25 C 5.519531 -5.207031 5.503906 -5.171875 5.484375 -5.140625 L 3.375 -0.28125 C 3.289062 -0.101562 3.160156 -0.0078125 2.984375 0 C 2.890625 0.0078125 2.800781 -0.00390625 2.71875 -0.046875 C 2.632812 -0.0976562 2.578125 -0.175781 2.546875 -0.28125 L 0.421875 -5.140625 C 0.410156 -5.171875 0.398438 -5.203125 0.390625 -5.234375 C 0.378906 -5.273438 0.375 -5.316406 0.375 -5.359375 C 0.375 -5.460938 0.410156 -5.554688 0.484375 -5.640625 C 0.566406 -5.722656 0.675781 -5.765625 0.8125 -5.765625 Z M 0.8125 -5.765625 "/></g></g></g><g fill="#8c52ff" fill-opacity="1"><g transform="translate(168.716744, 68.081095)"><g><path d="M 3.421875 0.109375 C 2.835938 0.109375 2.328125 -0.015625 1.890625 -0.265625 C 1.453125 -0.515625 1.109375 -0.851562 0.859375 -1.28125 C 0.617188 -1.71875 0.5 -2.222656 0.5 -2.796875 C 0.5 -3.429688 0.625 -3.972656 0.875 -4.421875 C 1.132812 -4.867188 1.460938 -5.210938 1.859375 -5.453125 C 2.265625 -5.691406 2.695312 -5.8125 3.15625 -5.8125 C 3.488281 -5.8125 3.8125 -5.75 4.125 -5.625 C 4.4375 -5.5 4.710938 -5.316406 4.953125 -5.078125 C 5.203125 -4.835938 5.398438 -4.550781 5.546875 -4.21875 C 5.691406 -3.882812 5.765625 -3.515625 5.765625 -3.109375 C 5.765625 -2.992188 5.722656 -2.894531 5.640625 -2.8125 C 5.554688 -2.726562 5.453125 -2.6875 5.328125 -2.6875 L 1 -2.6875 L 0.8125 -3.453125 L 5.03125 -3.453125 L 4.859375 -3.296875 L 4.859375 -3.53125 C 4.828125 -3.832031 4.722656 -4.09375 4.546875 -4.3125 C 4.378906 -4.53125 4.171875 -4.695312 3.921875 -4.8125 C 3.679688 -4.925781 3.425781 -4.984375 3.15625 -4.984375 C 2.9375 -4.984375 2.71875 -4.941406 2.5 -4.859375 C 2.28125 -4.785156 2.085938 -4.660156 1.921875 -4.484375 C 1.753906 -4.316406 1.613281 -4.097656 1.5 -3.828125 C 1.394531 -3.554688 1.34375 -3.234375 1.34375 -2.859375 C 1.34375 -2.429688 1.425781 -2.054688 1.59375 -1.734375 C 1.769531 -1.421875 2.007812 -1.171875 2.3125 -0.984375 C 2.625 -0.796875 2.984375 -0.703125 3.390625 -0.703125 C 3.648438 -0.703125 3.875 -0.734375 4.0625 -0.796875 C 4.25 -0.859375 4.410156 -0.9375 4.546875 -1.03125 C 4.691406 -1.132812 4.8125 -1.238281 4.90625 -1.34375 C 5 -1.414062 5.09375 -1.453125 5.1875 -1.453125 C 5.289062 -1.453125 5.375 -1.414062 5.4375 -1.34375 C 5.507812 -1.269531 5.546875 -1.179688 5.546875 -1.078125 C 5.546875 -0.953125 5.488281 -0.84375 5.375 -0.75 C 5.175781 -0.519531 4.898438 -0.316406 4.546875 -0.140625 C 4.191406 0.0234375 3.816406 0.109375 3.421875 0.109375 Z M 3.421875 0.109375 "/></g></g></g><g fill="#8c52ff" fill-opacity="1"><g transform="translate(176.930894, 68.081095)"><g><path d="M 1.25 0 C 1.125 0 1.019531 -0.0390625 0.9375 -0.125 C 0.851562 -0.21875 0.8125 -0.328125 0.8125 -0.453125 L 0.8125 -5.21875 C 0.8125 -5.34375 0.851562 -5.445312 0.9375 -5.53125 C 1.019531 -5.613281 1.125 -5.65625 1.25 -5.65625 C 1.382812 -5.65625 1.488281 -5.613281 1.5625 -5.53125 C 1.644531 -5.445312 1.6875 -5.34375 1.6875 -5.21875 L 1.6875 -3.78125 L 1.5625 -4.015625 C 1.601562 -4.234375 1.675781 -4.453125 1.78125 -4.671875 C 1.894531 -4.890625 2.039062 -5.082031 2.21875 -5.25 C 2.394531 -5.425781 2.597656 -5.5625 2.828125 -5.65625 C 3.054688 -5.757812 3.304688 -5.8125 3.578125 -5.8125 C 3.734375 -5.8125 3.878906 -5.769531 4.015625 -5.6875 C 4.148438 -5.613281 4.21875 -5.503906 4.21875 -5.359375 C 4.21875 -5.210938 4.175781 -5.101562 4.09375 -5.03125 C 4.007812 -4.957031 3.921875 -4.921875 3.828125 -4.921875 C 3.734375 -4.921875 3.640625 -4.9375 3.546875 -4.96875 C 3.460938 -5.007812 3.351562 -5.03125 3.21875 -5.03125 C 3.039062 -5.03125 2.859375 -4.984375 2.671875 -4.890625 C 2.492188 -4.796875 2.328125 -4.65625 2.171875 -4.46875 C 2.023438 -4.28125 1.90625 -4.070312 1.8125 -3.84375 C 1.726562 -3.613281 1.6875 -3.367188 1.6875 -3.109375 L 1.6875 -0.453125 C 1.6875 -0.328125 1.644531 -0.21875 1.5625 -0.125 C 1.476562 -0.0390625 1.375 0 1.25 0 Z M 1.25 0 "/></g></g></g><g fill="#8c52ff" fill-opacity="1"><g transform="translate(183.261731, 68.081095)"><g><path d="M 1.078125 -0.015625 C 0.921875 -0.015625 0.800781 -0.0546875 0.71875 -0.140625 C 0.632812 -0.234375 0.59375 -0.351562 0.59375 -0.5 L 0.59375 -0.71875 C 0.59375 -0.882812 0.632812 -1.007812 0.71875 -1.09375 C 0.800781 -1.1875 0.921875 -1.234375 1.078125 -1.234375 L 1.15625 -1.234375 C 1.320312 -1.234375 1.441406 -1.1875 1.515625 -1.09375 C 1.597656 -1.007812 1.640625 -0.882812 1.640625 -0.71875 L 1.640625 -0.5 C 1.640625 -0.351562 1.597656 -0.234375 1.515625 -0.140625 C 1.441406 -0.0546875 1.320312 -0.015625 1.15625 -0.015625 Z M 1.078125 -0.015625 "/></g></g></g><g fill="#8c52ff" fill-opacity="1"><g transform="translate(187.435514, 68.081095)"><g/></g></g><g fill="#8c52ff" fill-opacity="1"><g transform="translate(192.386713, 68.081095)"><g><path d="M 3.203125 0.109375 C 2.660156 0.109375 2.179688 0.03125 1.765625 -0.125 C 1.359375 -0.289062 0.96875 -0.546875 0.59375 -0.890625 C 0.539062 -0.941406 0.5 -1 0.46875 -1.0625 C 0.4375 -1.125 0.421875 -1.191406 0.421875 -1.265625 C 0.421875 -1.390625 0.460938 -1.492188 0.546875 -1.578125 C 0.628906 -1.671875 0.734375 -1.71875 0.859375 -1.71875 C 0.953125 -1.71875 1.039062 -1.675781 1.125 -1.59375 C 1.414062 -1.320312 1.722656 -1.113281 2.046875 -0.96875 C 2.378906 -0.820312 2.753906 -0.75 3.171875 -0.75 C 3.492188 -0.75 3.785156 -0.796875 4.046875 -0.890625 C 4.304688 -0.992188 4.507812 -1.132812 4.65625 -1.3125 C 4.8125 -1.5 4.890625 -1.710938 4.890625 -1.953125 C 4.890625 -2.253906 4.804688 -2.5 4.640625 -2.6875 C 4.472656 -2.875 4.242188 -3.03125 3.953125 -3.15625 C 3.671875 -3.289062 3.335938 -3.398438 2.953125 -3.484375 C 2.617188 -3.566406 2.3125 -3.664062 2.03125 -3.78125 C 1.75 -3.894531 1.503906 -4.035156 1.296875 -4.203125 C 1.097656 -4.378906 0.941406 -4.585938 0.828125 -4.828125 C 0.710938 -5.078125 0.65625 -5.367188 0.65625 -5.703125 C 0.65625 -6.109375 0.765625 -6.46875 0.984375 -6.78125 C 1.203125 -7.101562 1.503906 -7.347656 1.890625 -7.515625 C 2.273438 -7.691406 2.722656 -7.78125 3.234375 -7.78125 C 3.679688 -7.78125 4.101562 -7.707031 4.5 -7.5625 C 4.894531 -7.414062 5.210938 -7.210938 5.453125 -6.953125 C 5.597656 -6.816406 5.671875 -6.679688 5.671875 -6.546875 C 5.671875 -6.441406 5.625 -6.34375 5.53125 -6.25 C 5.445312 -6.15625 5.34375 -6.109375 5.21875 -6.109375 C 5.144531 -6.109375 5.070312 -6.140625 5 -6.203125 C 4.875 -6.335938 4.71875 -6.457031 4.53125 -6.5625 C 4.34375 -6.675781 4.132812 -6.765625 3.90625 -6.828125 C 3.6875 -6.898438 3.460938 -6.9375 3.234375 -6.9375 C 2.898438 -6.9375 2.601562 -6.882812 2.34375 -6.78125 C 2.082031 -6.6875 1.878906 -6.546875 1.734375 -6.359375 C 1.597656 -6.179688 1.53125 -5.972656 1.53125 -5.734375 C 1.53125 -5.453125 1.609375 -5.222656 1.765625 -5.046875 C 1.929688 -4.867188 2.148438 -4.722656 2.421875 -4.609375 C 2.691406 -4.492188 2.988281 -4.390625 3.3125 -4.296875 C 3.675781 -4.210938 4.007812 -4.113281 4.3125 -4 C 4.613281 -3.882812 4.875 -3.742188 5.09375 -3.578125 C 5.3125 -3.410156 5.476562 -3.195312 5.59375 -2.9375 C 5.71875 -2.675781 5.78125 -2.359375 5.78125 -1.984375 C 5.78125 -1.578125 5.664062 -1.21875 5.4375 -0.90625 C 5.21875 -0.59375 4.910156 -0.347656 4.515625 -0.171875 C 4.128906 0.00390625 3.691406 0.0976562 3.203125 0.109375 Z M 3.203125 0.109375 "/></g></g></g><g fill="#8c52ff" fill-opacity="1"><g transform="translate(200.611812, 68.081095)"><g><path d="M 3.546875 -5.75 C 4.023438 -5.75 4.40625 -5.644531 4.6875 -5.4375 C 4.96875 -5.226562 5.171875 -4.945312 5.296875 -4.59375 C 5.421875 -4.25 5.484375 -3.867188 5.484375 -3.453125 L 5.484375 -0.453125 C 5.484375 -0.328125 5.4375 -0.21875 5.34375 -0.125 C 5.257812 -0.0390625 5.15625 0 5.03125 0 C 4.914062 0 4.8125 -0.0390625 4.71875 -0.125 C 4.632812 -0.21875 4.59375 -0.328125 4.59375 -0.453125 L 4.59375 -3.453125 C 4.59375 -3.722656 4.550781 -3.96875 4.46875 -4.1875 C 4.394531 -4.414062 4.265625 -4.597656 4.078125 -4.734375 C 3.890625 -4.867188 3.632812 -4.9375 3.3125 -4.9375 C 3.019531 -4.9375 2.75 -4.867188 2.5 -4.734375 C 2.25 -4.597656 2.050781 -4.414062 1.90625 -4.1875 C 1.757812 -3.96875 1.6875 -3.722656 1.6875 -3.453125 L 1.6875 -0.453125 C 1.6875 -0.328125 1.644531 -0.21875 1.5625 -0.125 C 1.476562 -0.0390625 1.375 0 1.25 0 C 1.125 0 1.019531 -0.0390625 0.9375 -0.125 C 0.851562 -0.21875 0.8125 -0.328125 0.8125 -0.453125 L 0.8125 -7.671875 C 0.8125 -7.796875 0.851562 -7.898438 0.9375 -7.984375 C 1.019531 -8.066406 1.125 -8.109375 1.25 -8.109375 C 1.382812 -8.109375 1.488281 -8.066406 1.5625 -7.984375 C 1.644531 -7.898438 1.6875 -7.796875 1.6875 -7.671875 L 1.6875 -4.390625 L 1.46875 -4.15625 C 1.5 -4.34375 1.578125 -4.53125 1.703125 -4.71875 C 1.828125 -4.914062 1.984375 -5.09375 2.171875 -5.25 C 2.367188 -5.40625 2.582031 -5.523438 2.8125 -5.609375 C 3.050781 -5.703125 3.296875 -5.75 3.546875 -5.75 Z M 3.546875 -5.75 "/></g></g></g><g fill="#8c52ff" fill-opacity="1"><g transform="translate(208.836911, 68.081095)"><g><path d="M 5.484375 -5.71875 C 5.597656 -5.71875 5.695312 -5.675781 5.78125 -5.59375 C 5.875 -5.507812 5.921875 -5.40625 5.921875 -5.28125 L 5.921875 -0.453125 C 5.921875 -0.328125 5.875 -0.21875 5.78125 -0.125 C 5.695312 -0.0390625 5.597656 0 5.484375 0 C 5.347656 0 5.238281 -0.0390625 5.15625 -0.125 C 5.070312 -0.21875 5.03125 -0.328125 5.03125 -0.453125 L 5.03125 -1.484375 L 5.25 -1.515625 C 5.25 -1.347656 5.191406 -1.171875 5.078125 -0.984375 C 4.972656 -0.796875 4.820312 -0.617188 4.625 -0.453125 C 4.4375 -0.285156 4.210938 -0.148438 3.953125 -0.046875 C 3.703125 0.0546875 3.425781 0.109375 3.125 0.109375 C 2.625 0.109375 2.175781 -0.0195312 1.78125 -0.28125 C 1.382812 -0.539062 1.070312 -0.890625 0.84375 -1.328125 C 0.613281 -1.773438 0.5 -2.285156 0.5 -2.859375 C 0.5 -3.429688 0.613281 -3.9375 0.84375 -4.375 C 1.070312 -4.820312 1.382812 -5.171875 1.78125 -5.421875 C 2.175781 -5.679688 2.613281 -5.8125 3.09375 -5.8125 C 3.414062 -5.8125 3.707031 -5.757812 3.96875 -5.65625 C 4.238281 -5.550781 4.472656 -5.410156 4.671875 -5.234375 C 4.878906 -5.054688 5.039062 -4.863281 5.15625 -4.65625 C 5.269531 -4.445312 5.328125 -4.234375 5.328125 -4.015625 L 5.03125 -4.078125 L 5.03125 -5.28125 C 5.03125 -5.40625 5.070312 -5.507812 5.15625 -5.59375 C 5.238281 -5.675781 5.347656 -5.71875 5.484375 -5.71875 Z M 3.21875 -0.703125 C 3.582031 -0.703125 3.90625 -0.796875 4.1875 -0.984375 C 4.46875 -1.171875 4.6875 -1.425781 4.84375 -1.75 C 5 -2.082031 5.078125 -2.453125 5.078125 -2.859375 C 5.078125 -3.265625 5 -3.628906 4.84375 -3.953125 C 4.6875 -4.273438 4.46875 -4.53125 4.1875 -4.71875 C 3.90625 -4.90625 3.582031 -5 3.21875 -5 C 2.863281 -5 2.546875 -4.90625 2.265625 -4.71875 C 1.984375 -4.539062 1.757812 -4.289062 1.59375 -3.96875 C 1.4375 -3.644531 1.359375 -3.273438 1.359375 -2.859375 C 1.359375 -2.453125 1.4375 -2.082031 1.59375 -1.75 C 1.75 -1.425781 1.96875 -1.171875 2.25 -0.984375 C 2.53125 -0.796875 2.851562 -0.703125 3.21875 -0.703125 Z M 3.21875 -0.703125 "/></g></g></g><g fill="#8c52ff" fill-opacity="1"><g transform="translate(217.499986, 68.081095)"><g><path d="M 1.25 0 C 1.125 0 1.019531 -0.0390625 0.9375 -0.125 C 0.851562 -0.21875 0.8125 -0.328125 0.8125 -0.453125 L 0.8125 -5.21875 C 0.8125 -5.34375 0.851562 -5.445312 0.9375 -5.53125 C 1.019531 -5.613281 1.125 -5.65625 1.25 -5.65625 C 1.382812 -5.65625 1.488281 -5.613281 1.5625 -5.53125 C 1.644531 -5.445312 1.6875 -5.34375 1.6875 -5.21875 L 1.6875 -3.78125 L 1.5625 -4.015625 C 1.601562 -4.234375 1.675781 -4.453125 1.78125 -4.671875 C 1.894531 -4.890625 2.039062 -5.082031 2.21875 -5.25 C 2.394531 -5.425781 2.597656 -5.5625 2.828125 -5.65625 C 3.054688 -5.757812 3.304688 -5.8125 3.578125 -5.8125 C 3.734375 -5.8125 3.878906 -5.769531 4.015625 -5.6875 C 4.148438 -5.613281 4.21875 -5.503906 4.21875 -5.359375 C 4.21875 -5.210938 4.175781 -5.101562 4.09375 -5.03125 C 4.007812 -4.957031 3.921875 -4.921875 3.828125 -4.921875 C 3.734375 -4.921875 3.640625 -4.9375 3.546875 -4.96875 C 3.460938 -5.007812 3.351562 -5.03125 3.21875 -5.03125 C 3.039062 -5.03125 2.859375 -4.984375 2.671875 -4.890625 C 2.492188 -4.796875 2.328125 -4.65625 2.171875 -4.46875 C 2.023438 -4.28125 1.90625 -4.070312 1.8125 -3.84375 C 1.726562 -3.613281 1.6875 -3.367188 1.6875 -3.109375 L 1.6875 -0.453125 C 1.6875 -0.328125 1.644531 -0.21875 1.5625 -0.125 C 1.476562 -0.0390625 1.375 0 1.25 0 Z M 1.25 0 "/></g></g></g><g fill="#8c52ff" fill-opacity="1"><g transform="translate(223.830824, 68.081095)"><g><path d="M 3.421875 0.109375 C 2.835938 0.109375 2.328125 -0.015625 1.890625 -0.265625 C 1.453125 -0.515625 1.109375 -0.851562 0.859375 -1.28125 C 0.617188 -1.71875 0.5 -2.222656 0.5 -2.796875 C 0.5 -3.429688 0.625 -3.972656 0.875 -4.421875 C 1.132812 -4.867188 1.460938 -5.210938 1.859375 -5.453125 C 2.265625 -5.691406 2.695312 -5.8125 3.15625 -5.8125 C 3.488281 -5.8125 3.8125 -5.75 4.125 -5.625 C 4.4375 -5.5 4.710938 -5.316406 4.953125 -5.078125 C 5.203125 -4.835938 5.398438 -4.550781 5.546875 -4.21875 C 5.691406 -3.882812 5.765625 -3.515625 5.765625 -3.109375 C 5.765625 -2.992188 5.722656 -2.894531 5.640625 -2.8125 C 5.554688 -2.726562 5.453125 -2.6875 5.328125 -2.6875 L 1 -2.6875 L 0.8125 -3.453125 L 5.03125 -3.453125 L 4.859375 -3.296875 L 4.859375 -3.53125 C 4.828125 -3.832031 4.722656 -4.09375 4.546875 -4.3125 C 4.378906 -4.53125 4.171875 -4.695312 3.921875 -4.8125 C 3.679688 -4.925781 3.425781 -4.984375 3.15625 -4.984375 C 2.9375 -4.984375 2.71875 -4.941406 2.5 -4.859375 C 2.28125 -4.785156 2.085938 -4.660156 1.921875 -4.484375 C 1.753906 -4.316406 1.613281 -4.097656 1.5 -3.828125 C 1.394531 -3.554688 1.34375 -3.234375 1.34375 -2.859375 C 1.34375 -2.429688 1.425781 -2.054688 1.59375 -1.734375 C 1.769531 -1.421875 2.007812 -1.171875 2.3125 -0.984375 C 2.625 -0.796875 2.984375 -0.703125 3.390625 -0.703125 C 3.648438 -0.703125 3.875 -0.734375 4.0625 -0.796875 C 4.25 -0.859375 4.410156 -0.9375 4.546875 -1.03125 C 4.691406 -1.132812 4.8125 -1.238281 4.90625 -1.34375 C 5 -1.414062 5.09375 -1.453125 5.1875 -1.453125 C 5.289062 -1.453125 5.375 -1.414062 5.4375 -1.34375 C 5.507812 -1.269531 5.546875 -1.179688 5.546875 -1.078125 C 5.546875 -0.953125 5.488281 -0.84375 5.375 -0.75 C 5.175781 -0.519531 4.898438 -0.316406 4.546875 -0.140625 C 4.191406 0.0234375 3.816406 0.109375 3.421875 0.109375 Z M 3.421875 0.109375 "/></g></g></g><g fill="#8c52ff" fill-opacity="1"><g transform="translate(232.044973, 68.081095)"><g><path d="M 1.078125 -0.015625 C 0.921875 -0.015625 0.800781 -0.0546875 0.71875 -0.140625 C 0.632812 -0.234375 0.59375 -0.351562 0.59375 -0.5 L 0.59375 -0.71875 C 0.59375 -0.882812 0.632812 -1.007812 0.71875 -1.09375 C 0.800781 -1.1875 0.921875 -1.234375 1.078125 -1.234375 L 1.15625 -1.234375 C 1.320312 -1.234375 1.441406 -1.1875 1.515625 -1.09375 C 1.597656 -1.007812 1.640625 -0.882812 1.640625 -0.71875 L 1.640625 -0.5 C 1.640625 -0.351562 1.597656 -0.234375 1.515625 -0.140625 C 1.441406 -0.0546875 1.320312 -0.015625 1.15625 -0.015625 Z M 1.078125 -0.015625 "/></g></g></g><g fill="#8c52ff" fill-opacity="1"><g transform="translate(236.218756, 68.081095)"><g/></g></g><g fill="#8c52ff" fill-opacity="1"><g transform="translate(241.169955, 68.081095)"><g><path d="M 1.40625 -7.671875 L 5.296875 -7.671875 C 5.421875 -7.671875 5.523438 -7.628906 5.609375 -7.546875 C 5.703125 -7.460938 5.75 -7.359375 5.75 -7.234375 C 5.75 -7.109375 5.703125 -7.007812 5.609375 -6.9375 C 5.523438 -6.863281 5.421875 -6.828125 5.296875 -6.828125 L 1.78125 -6.828125 L 1.875 -7.015625 L 1.875 -4.234375 L 1.765625 -4.359375 L 4.8125 -4.359375 C 4.9375 -4.359375 5.039062 -4.316406 5.125 -4.234375 C 5.207031 -4.160156 5.25 -4.0625 5.25 -3.9375 C 5.25 -3.8125 5.207031 -3.707031 5.125 -3.625 C 5.039062 -3.550781 4.9375 -3.515625 4.8125 -3.515625 L 1.796875 -3.515625 L 1.875 -3.609375 L 1.875 -0.78125 L 1.8125 -0.859375 L 5.296875 -0.859375 C 5.421875 -0.859375 5.523438 -0.8125 5.609375 -0.71875 C 5.703125 -0.632812 5.75 -0.535156 5.75 -0.421875 C 5.75 -0.296875 5.703125 -0.191406 5.609375 -0.109375 C 5.523438 -0.0351562 5.421875 0 5.296875 0 L 1.40625 0 C 1.28125 0 1.175781 -0.0390625 1.09375 -0.125 C 1.007812 -0.21875 0.96875 -0.328125 0.96875 -0.453125 L 0.96875 -7.234375 C 0.96875 -7.359375 1.007812 -7.460938 1.09375 -7.546875 C 1.175781 -7.628906 1.28125 -7.671875 1.40625 -7.671875 Z M 1.40625 -7.671875 "/></g></g></g><g fill="#8c52ff" fill-opacity="1"><g transform="translate(249.351255, 68.081095)"><g><path d="M 0.75 -5.734375 C 0.894531 -5.734375 1.015625 -5.671875 1.109375 -5.546875 L 4.921875 -0.671875 C 4.972656 -0.597656 5 -0.515625 5 -0.421875 C 5 -0.296875 4.957031 -0.1875 4.875 -0.09375 C 4.789062 -0.0078125 4.6875 0.03125 4.5625 0.03125 C 4.425781 0.03125 4.304688 -0.0351562 4.203125 -0.171875 L 0.390625 -5.015625 C 0.335938 -5.097656 0.3125 -5.1875 0.3125 -5.28125 C 0.3125 -5.414062 0.351562 -5.523438 0.4375 -5.609375 C 0.53125 -5.691406 0.632812 -5.734375 0.75 -5.734375 Z M 0.75 0.015625 C 0.65625 0.015625 0.5625 -0.0195312 0.46875 -0.09375 C 0.375 -0.164062 0.328125 -0.257812 0.328125 -0.375 C 0.328125 -0.46875 0.363281 -0.554688 0.4375 -0.640625 L 2.234375 -2.90625 L 2.6875 -2.1875 L 1.109375 -0.15625 C 1.015625 -0.0390625 0.894531 0.015625 0.75 0.015625 Z M 4.5625 -5.734375 C 4.6875 -5.734375 4.785156 -5.691406 4.859375 -5.609375 C 4.941406 -5.523438 4.984375 -5.429688 4.984375 -5.328125 C 4.984375 -5.285156 4.972656 -5.238281 4.953125 -5.1875 C 4.929688 -5.132812 4.90625 -5.085938 4.875 -5.046875 L 3.09375 -2.765625 L 2.625 -3.421875 L 4.203125 -5.53125 C 4.304688 -5.664062 4.425781 -5.734375 4.5625 -5.734375 Z M 4.5625 -5.734375 "/></g></g></g><g fill="#8c52ff" fill-opacity="1"><g transform="translate(256.601844, 68.081095)"><g><path d="M 3.609375 -5.75 C 4.097656 -5.75 4.539062 -5.625 4.9375 -5.375 C 5.332031 -5.125 5.644531 -4.78125 5.875 -4.34375 C 6.101562 -3.90625 6.21875 -3.40625 6.21875 -2.84375 C 6.21875 -2.28125 6.101562 -1.773438 5.875 -1.328125 C 5.644531 -0.890625 5.332031 -0.539062 4.9375 -0.28125 C 4.550781 -0.03125 4.113281 0.09375 3.625 0.09375 C 3.351562 0.09375 3.097656 0.0507812 2.859375 -0.03125 C 2.628906 -0.125 2.414062 -0.234375 2.21875 -0.359375 C 2.019531 -0.492188 1.851562 -0.644531 1.71875 -0.8125 C 1.59375 -0.988281 1.503906 -1.164062 1.453125 -1.34375 L 1.6875 -1.484375 L 1.6875 1.734375 C 1.6875 1.859375 1.644531 1.960938 1.5625 2.046875 C 1.488281 2.140625 1.382812 2.1875 1.25 2.1875 C 1.125 2.1875 1.019531 2.144531 0.9375 2.0625 C 0.851562 1.976562 0.8125 1.867188 0.8125 1.734375 L 0.8125 -5.25 C 0.8125 -5.375 0.851562 -5.476562 0.9375 -5.5625 C 1.019531 -5.65625 1.125 -5.703125 1.25 -5.703125 C 1.382812 -5.703125 1.488281 -5.65625 1.5625 -5.5625 C 1.644531 -5.476562 1.6875 -5.375 1.6875 -5.25 L 1.6875 -4.28125 L 1.515625 -4.375 C 1.566406 -4.550781 1.65625 -4.722656 1.78125 -4.890625 C 1.914062 -5.054688 2.078125 -5.203125 2.265625 -5.328125 C 2.453125 -5.460938 2.660156 -5.566406 2.890625 -5.640625 C 3.117188 -5.710938 3.359375 -5.75 3.609375 -5.75 Z M 3.5 -4.9375 C 3.132812 -4.9375 2.8125 -4.84375 2.53125 -4.65625 C 2.25 -4.476562 2.03125 -4.234375 1.875 -3.921875 C 1.71875 -3.609375 1.640625 -3.25 1.640625 -2.84375 C 1.640625 -2.4375 1.71875 -2.070312 1.875 -1.75 C 2.03125 -1.425781 2.25 -1.171875 2.53125 -0.984375 C 2.8125 -0.804688 3.132812 -0.71875 3.5 -0.71875 C 3.863281 -0.71875 4.1875 -0.804688 4.46875 -0.984375 C 4.75 -1.171875 4.96875 -1.425781 5.125 -1.75 C 5.28125 -2.070312 5.359375 -2.4375 5.359375 -2.84375 C 5.359375 -3.25 5.28125 -3.609375 5.125 -3.921875 C 4.96875 -4.234375 4.75 -4.476562 4.46875 -4.65625 C 4.1875 -4.84375 3.863281 -4.9375 3.5 -4.9375 Z M 3.5 -4.9375 "/></g></g></g><g fill="#8c52ff" fill-opacity="1"><g transform="translate(265.264919, 68.081095)"><g><path d="M 3.421875 0.109375 C 2.835938 0.109375 2.328125 -0.015625 1.890625 -0.265625 C 1.453125 -0.515625 1.109375 -0.851562 0.859375 -1.28125 C 0.617188 -1.71875 0.5 -2.222656 0.5 -2.796875 C 0.5 -3.429688 0.625 -3.972656 0.875 -4.421875 C 1.132812 -4.867188 1.460938 -5.210938 1.859375 -5.453125 C 2.265625 -5.691406 2.695312 -5.8125 3.15625 -5.8125 C 3.488281 -5.8125 3.8125 -5.75 4.125 -5.625 C 4.4375 -5.5 4.710938 -5.316406 4.953125 -5.078125 C 5.203125 -4.835938 5.398438 -4.550781 5.546875 -4.21875 C 5.691406 -3.882812 5.765625 -3.515625 5.765625 -3.109375 C 5.765625 -2.992188 5.722656 -2.894531 5.640625 -2.8125 C 5.554688 -2.726562 5.453125 -2.6875 5.328125 -2.6875 L 1 -2.6875 L 0.8125 -3.453125 L 5.03125 -3.453125 L 4.859375 -3.296875 L 4.859375 -3.53125 C 4.828125 -3.832031 4.722656 -4.09375 4.546875 -4.3125 C 4.378906 -4.53125 4.171875 -4.695312 3.921875 -4.8125 C 3.679688 -4.925781 3.425781 -4.984375 3.15625 -4.984375 C 2.9375 -4.984375 2.71875 -4.941406 2.5 -4.859375 C 2.28125 -4.785156 2.085938 -4.660156 1.921875 -4.484375 C 1.753906 -4.316406 1.613281 -4.097656 1.5 -3.828125 C 1.394531 -3.554688 1.34375 -3.234375 1.34375 -2.859375 C 1.34375 -2.429688 1.425781 -2.054688 1.59375 -1.734375 C 1.769531 -1.421875 2.007812 -1.171875 2.3125 -0.984375 C 2.625 -0.796875 2.984375 -0.703125 3.390625 -0.703125 C 3.648438 -0.703125 3.875 -0.734375 4.0625 -0.796875 C 4.25 -0.859375 4.410156 -0.9375 4.546875 -1.03125 C 4.691406 -1.132812 4.8125 -1.238281 4.90625 -1.34375 C 5 -1.414062 5.09375 -1.453125 5.1875 -1.453125 C 5.289062 -1.453125 5.375 -1.414062 5.4375 -1.34375 C 5.507812 -1.269531 5.546875 -1.179688 5.546875 -1.078125 C 5.546875 -0.953125 5.488281 -0.84375 5.375 -0.75 C 5.175781 -0.519531 4.898438 -0.316406 4.546875 -0.140625 C 4.191406 0.0234375 3.816406 0.109375 3.421875 0.109375 Z M 3.421875 0.109375 "/></g></g></g><g fill="#8c52ff" fill-opacity="1"><g transform="translate(273.479068, 68.081095)"><g><path d="M 1.25 0 C 1.125 0 1.019531 -0.0390625 0.9375 -0.125 C 0.851562 -0.21875 0.8125 -0.328125 0.8125 -0.453125 L 0.8125 -5.21875 C 0.8125 -5.34375 0.851562 -5.445312 0.9375 -5.53125 C 1.019531 -5.613281 1.125 -5.65625 1.25 -5.65625 C 1.382812 -5.65625 1.488281 -5.613281 1.5625 -5.53125 C 1.644531 -5.445312 1.6875 -5.34375 1.6875 -5.21875 L 1.6875 -3.78125 L 1.5625 -4.015625 C 1.601562 -4.234375 1.675781 -4.453125 1.78125 -4.671875 C 1.894531 -4.890625 2.039062 -5.082031 2.21875 -5.25 C 2.394531 -5.425781 2.597656 -5.5625 2.828125 -5.65625 C 3.054688 -5.757812 3.304688 -5.8125 3.578125 -5.8125 C 3.734375 -5.8125 3.878906 -5.769531 4.015625 -5.6875 C 4.148438 -5.613281 4.21875 -5.503906 4.21875 -5.359375 C 4.21875 -5.210938 4.175781 -5.101562 4.09375 -5.03125 C 4.007812 -4.957031 3.921875 -4.921875 3.828125 -4.921875 C 3.734375 -4.921875 3.640625 -4.9375 3.546875 -4.96875 C 3.460938 -5.007812 3.351562 -5.03125 3.21875 -5.03125 C 3.039062 -5.03125 2.859375 -4.984375 2.671875 -4.890625 C 2.492188 -4.796875 2.328125 -4.65625 2.171875 -4.46875 C 2.023438 -4.28125 1.90625 -4.070312 1.8125 -3.84375 C 1.726562 -3.613281 1.6875 -3.367188 1.6875 -3.109375 L 1.6875 -0.453125 C 1.6875 -0.328125 1.644531 -0.21875 1.5625 -0.125 C 1.476562 -0.0390625 1.375 0 1.25 0 Z M 1.25 0 "/></g></g></g><g fill="#8c52ff" fill-opacity="1"><g transform="translate(279.809905, 68.081095)"><g><path d="M 1.65625 -0.453125 C 1.65625 -0.328125 1.613281 -0.21875 1.53125 -0.125 C 1.445312 -0.0390625 1.34375 0 1.21875 0 C 1.082031 0 0.972656 -0.0390625 0.890625 -0.125 C 0.816406 -0.21875 0.78125 -0.328125 0.78125 -0.453125 L 0.78125 -5.3125 C 0.78125 -5.4375 0.820312 -5.539062 0.90625 -5.625 C 0.988281 -5.707031 1.09375 -5.75 1.21875 -5.75 C 1.34375 -5.75 1.445312 -5.707031 1.53125 -5.625 C 1.613281 -5.539062 1.65625 -5.4375 1.65625 -5.3125 Z M 1.203125 -6.484375 C 1.023438 -6.484375 0.890625 -6.519531 0.796875 -6.59375 C 0.710938 -6.664062 0.671875 -6.78125 0.671875 -6.9375 L 0.671875 -7.09375 C 0.671875 -7.238281 0.71875 -7.347656 0.8125 -7.421875 C 0.90625 -7.492188 1.039062 -7.53125 1.21875 -7.53125 C 1.394531 -7.53125 1.523438 -7.492188 1.609375 -7.421875 C 1.703125 -7.347656 1.75 -7.238281 1.75 -7.09375 L 1.75 -6.9375 C 1.75 -6.78125 1.703125 -6.664062 1.609375 -6.59375 C 1.515625 -6.519531 1.378906 -6.484375 1.203125 -6.484375 Z M 1.203125 -6.484375 "/></g></g></g><g fill="#8c52ff" fill-opacity="1"><g transform="translate(284.169833, 68.081095)"><g><path d="M 3.421875 0.109375 C 2.835938 0.109375 2.328125 -0.015625 1.890625 -0.265625 C 1.453125 -0.515625 1.109375 -0.851562 0.859375 -1.28125 C 0.617188 -1.71875 0.5 -2.222656 0.5 -2.796875 C 0.5 -3.429688 0.625 -3.972656 0.875 -4.421875 C 1.132812 -4.867188 1.460938 -5.210938 1.859375 -5.453125 C 2.265625 -5.691406 2.695312 -5.8125 3.15625 -5.8125 C 3.488281 -5.8125 3.8125 -5.75 4.125 -5.625 C 4.4375 -5.5 4.710938 -5.316406 4.953125 -5.078125 C 5.203125 -4.835938 5.398438 -4.550781 5.546875 -4.21875 C 5.691406 -3.882812 5.765625 -3.515625 5.765625 -3.109375 C 5.765625 -2.992188 5.722656 -2.894531 5.640625 -2.8125 C 5.554688 -2.726562 5.453125 -2.6875 5.328125 -2.6875 L 1 -2.6875 L 0.8125 -3.453125 L 5.03125 -3.453125 L 4.859375 -3.296875 L 4.859375 -3.53125 C 4.828125 -3.832031 4.722656 -4.09375 4.546875 -4.3125 C 4.378906 -4.53125 4.171875 -4.695312 3.921875 -4.8125 C 3.679688 -4.925781 3.425781 -4.984375 3.15625 -4.984375 C 2.9375 -4.984375 2.71875 -4.941406 2.5 -4.859375 C 2.28125 -4.785156 2.085938 -4.660156 1.921875 -4.484375 C 1.753906 -4.316406 1.613281 -4.097656 1.5 -3.828125 C 1.394531 -3.554688 1.34375 -3.234375 1.34375 -2.859375 C 1.34375 -2.429688 1.425781 -2.054688 1.59375 -1.734375 C 1.769531 -1.421875 2.007812 -1.171875 2.3125 -0.984375 C 2.625 -0.796875 2.984375 -0.703125 3.390625 -0.703125 C 3.648438 -0.703125 3.875 -0.734375 4.0625 -0.796875 C 4.25 -0.859375 4.410156 -0.9375 4.546875 -1.03125 C 4.691406 -1.132812 4.8125 -1.238281 4.90625 -1.34375 C 5 -1.414062 5.09375 -1.453125 5.1875 -1.453125 C 5.289062 -1.453125 5.375 -1.414062 5.4375 -1.34375 C 5.507812 -1.269531 5.546875 -1.179688 5.546875 -1.078125 C 5.546875 -0.953125 5.488281 -0.84375 5.375 -0.75 C 5.175781 -0.519531 4.898438 -0.316406 4.546875 -0.140625 C 4.191406 0.0234375 3.816406 0.109375 3.421875 0.109375 Z M 3.421875 0.109375 "/></g></g></g><g fill="#8c52ff" fill-opacity="1"><g transform="translate(292.383982, 68.081095)"><g><path d="M 3.625 -5.8125 C 4.125 -5.8125 4.515625 -5.707031 4.796875 -5.5 C 5.078125 -5.289062 5.28125 -5.015625 5.40625 -4.671875 C 5.53125 -4.328125 5.59375 -3.945312 5.59375 -3.53125 L 5.59375 -0.453125 C 5.59375 -0.328125 5.546875 -0.21875 5.453125 -0.125 C 5.367188 -0.0390625 5.265625 0 5.140625 0 C 5.023438 0 4.921875 -0.0390625 4.828125 -0.125 C 4.742188 -0.21875 4.703125 -0.328125 4.703125 -0.453125 L 4.703125 -3.5 C 4.703125 -3.78125 4.660156 -4.03125 4.578125 -4.25 C 4.492188 -4.476562 4.351562 -4.660156 4.15625 -4.796875 C 3.96875 -4.929688 3.707031 -5 3.375 -5 C 3.0625 -5 2.773438 -4.929688 2.515625 -4.796875 C 2.265625 -4.660156 2.0625 -4.476562 1.90625 -4.25 C 1.757812 -4.03125 1.6875 -3.78125 1.6875 -3.5 L 1.6875 -0.453125 C 1.6875 -0.328125 1.644531 -0.21875 1.5625 -0.125 C 1.476562 -0.0390625 1.375 0 1.25 0 C 1.125 0 1.019531 -0.0390625 0.9375 -0.125 C 0.851562 -0.21875 0.8125 -0.328125 0.8125 -0.453125 L 0.8125 -5.21875 C 0.8125 -5.34375 0.851562 -5.445312 0.9375 -5.53125 C 1.019531 -5.613281 1.125 -5.65625 1.25 -5.65625 C 1.382812 -5.65625 1.488281 -5.613281 1.5625 -5.53125 C 1.644531 -5.445312 1.6875 -5.34375 1.6875 -5.21875 L 1.6875 -4.453125 L 1.46875 -4.203125 C 1.5 -4.390625 1.582031 -4.582031 1.71875 -4.78125 C 1.851562 -4.976562 2.019531 -5.148438 2.21875 -5.296875 C 2.414062 -5.453125 2.632812 -5.578125 2.875 -5.671875 C 3.113281 -5.765625 3.363281 -5.8125 3.625 -5.8125 Z M 3.625 -5.8125 "/></g></g></g><g fill="#8c52ff" fill-opacity="1"><g transform="translate(300.718579, 68.081095)"><g><path d="M 3.328125 -5.8125 C 3.703125 -5.8125 4.035156 -5.769531 4.328125 -5.6875 C 4.628906 -5.601562 4.867188 -5.488281 5.046875 -5.34375 C 5.222656 -5.207031 5.3125 -5.054688 5.3125 -4.890625 C 5.3125 -4.796875 5.273438 -4.703125 5.203125 -4.609375 C 5.140625 -4.523438 5.054688 -4.484375 4.953125 -4.484375 C 4.847656 -4.484375 4.765625 -4.5 4.703125 -4.53125 C 4.640625 -4.570312 4.582031 -4.617188 4.53125 -4.671875 C 4.476562 -4.734375 4.398438 -4.785156 4.296875 -4.828125 C 4.210938 -4.878906 4.085938 -4.921875 3.921875 -4.953125 C 3.753906 -4.984375 3.585938 -5 3.421875 -5 C 3.015625 -5 2.660156 -4.898438 2.359375 -4.703125 C 2.054688 -4.515625 1.816406 -4.257812 1.640625 -3.9375 C 1.460938 -3.625 1.375 -3.257812 1.375 -2.84375 C 1.375 -2.4375 1.457031 -2.070312 1.625 -1.75 C 1.800781 -1.425781 2.035156 -1.171875 2.328125 -0.984375 C 2.628906 -0.796875 2.976562 -0.703125 3.375 -0.703125 C 3.625 -0.703125 3.828125 -0.722656 3.984375 -0.765625 C 4.140625 -0.804688 4.269531 -0.859375 4.375 -0.921875 C 4.5 -0.992188 4.597656 -1.066406 4.671875 -1.140625 C 4.742188 -1.210938 4.835938 -1.25 4.953125 -1.25 C 5.078125 -1.25 5.171875 -1.207031 5.234375 -1.125 C 5.304688 -1.039062 5.34375 -0.941406 5.34375 -0.828125 C 5.34375 -0.703125 5.25 -0.566406 5.0625 -0.421875 C 4.882812 -0.273438 4.640625 -0.148438 4.328125 -0.046875 C 4.015625 0.0546875 3.664062 0.109375 3.28125 0.109375 C 2.71875 0.109375 2.226562 -0.0195312 1.8125 -0.28125 C 1.394531 -0.539062 1.070312 -0.894531 0.84375 -1.34375 C 0.613281 -1.789062 0.5 -2.289062 0.5 -2.84375 C 0.5 -3.40625 0.617188 -3.90625 0.859375 -4.34375 C 1.097656 -4.789062 1.425781 -5.144531 1.84375 -5.40625 C 2.269531 -5.675781 2.765625 -5.8125 3.328125 -5.8125 Z M 3.328125 -5.8125 "/></g></g></g><g fill="#8c52ff" fill-opacity="1"><g transform="translate(308.341456, 68.081095)"><g><path d="M 3.421875 0.109375 C 2.835938 0.109375 2.328125 -0.015625 1.890625 -0.265625 C 1.453125 -0.515625 1.109375 -0.851562 0.859375 -1.28125 C 0.617188 -1.71875 0.5 -2.222656 0.5 -2.796875 C 0.5 -3.429688 0.625 -3.972656 0.875 -4.421875 C 1.132812 -4.867188 1.460938 -5.210938 1.859375 -5.453125 C 2.265625 -5.691406 2.695312 -5.8125 3.15625 -5.8125 C 3.488281 -5.8125 3.8125 -5.75 4.125 -5.625 C 4.4375 -5.5 4.710938 -5.316406 4.953125 -5.078125 C 5.203125 -4.835938 5.398438 -4.550781 5.546875 -4.21875 C 5.691406 -3.882812 5.765625 -3.515625 5.765625 -3.109375 C 5.765625 -2.992188 5.722656 -2.894531 5.640625 -2.8125 C 5.554688 -2.726562 5.453125 -2.6875 5.328125 -2.6875 L 1 -2.6875 L 0.8125 -3.453125 L 5.03125 -3.453125 L 4.859375 -3.296875 L 4.859375 -3.53125 C 4.828125 -3.832031 4.722656 -4.09375 4.546875 -4.3125 C 4.378906 -4.53125 4.171875 -4.695312 3.921875 -4.8125 C 3.679688 -4.925781 3.425781 -4.984375 3.15625 -4.984375 C 2.9375 -4.984375 2.71875 -4.941406 2.5 -4.859375 C 2.28125 -4.785156 2.085938 -4.660156 1.921875 -4.484375 C 1.753906 -4.316406 1.613281 -4.097656 1.5 -3.828125 C 1.394531 -3.554688 1.34375 -3.234375 1.34375 -2.859375 C 1.34375 -2.429688 1.425781 -2.054688 1.59375 -1.734375 C 1.769531 -1.421875 2.007812 -1.171875 2.3125 -0.984375 C 2.625 -0.796875 2.984375 -0.703125 3.390625 -0.703125 C 3.648438 -0.703125 3.875 -0.734375 4.0625 -0.796875 C 4.25 -0.859375 4.410156 -0.9375 4.546875 -1.03125 C 4.691406 -1.132812 4.8125 -1.238281 4.90625 -1.34375 C 5 -1.414062 5.09375 -1.453125 5.1875 -1.453125 C 5.289062 -1.453125 5.375 -1.414062 5.4375 -1.34375 C 5.507812 -1.269531 5.546875 -1.179688 5.546875 -1.078125 C 5.546875 -0.953125 5.488281 -0.84375 5.375 -0.75 C 5.175781 -0.519531 4.898438 -0.316406 4.546875 -0.140625 C 4.191406 0.0234375 3.816406 0.109375 3.421875 0.109375 Z M 3.421875 0.109375 "/></g></g></g><g fill="#8c52ff" fill-opacity="1"><g transform="translate(316.555606, 68.081095)"><g><path d="M 1.078125 -0.015625 C 0.921875 -0.015625 0.800781 -0.0546875 0.71875 -0.140625 C 0.632812 -0.234375 0.59375 -0.351562 0.59375 -0.5 L 0.59375 -0.71875 C 0.59375 -0.882812 0.632812 -1.007812 0.71875 -1.09375 C 0.800781 -1.1875 0.921875 -1.234375 1.078125 -1.234375 L 1.15625 -1.234375 C 1.320312 -1.234375 1.441406 -1.1875 1.515625 -1.09375 C 1.597656 -1.007812 1.640625 -0.882812 1.640625 -0.71875 L 1.640625 -0.5 C 1.640625 -0.351562 1.597656 -0.234375 1.515625 -0.140625 C 1.441406 -0.0546875 1.320312 -0.015625 1.15625 -0.015625 Z M 1.078125 -0.015625 "/></g></g></g></svg>